<svg width="20" height="20" viewBox="0 0 20 20" fill="none" xmlns="http://www.w3.org/2000/svg">
<path d="M13.9141 4.58333C12.8958 4.53333 11.6816 5.00833 10.6725 6.38333L10.0016 7.29166L9.32997 6.38333C8.31997 5.00833 7.10497 4.53333 6.08664 4.58333C5.05081 4.64166 4.12914 5.23333 3.66164 6.175C3.20164 7.10833 3.13414 8.49166 4.06081 10.1917C4.95581 11.8333 6.77497 13.75 10.0016 15.7C13.2266 13.75 15.045 11.8333 15.94 10.1917C16.8658 8.49166 16.7983 7.10833 16.3375 6.175C15.87 5.23333 14.9491 4.64166 13.9141 4.58333ZM17.4033 10.9917C16.2775 13.0583 14.0691 15.2583 10.4208 17.3833L10.0016 17.6333L9.58164 17.3833C5.93247 15.2583 3.72414 13.0583 2.59664 10.9917C1.46331 8.90833 1.42164 6.94166 2.16831 5.43333C2.90747 3.94166 4.37414 3.00833 6.00247 2.925C7.37831 2.85 8.80914 3.39166 10.0008 4.6C11.1916 3.39166 12.6225 2.85 13.9975 2.925C15.6258 3.00833 17.0925 3.94166 17.8316 5.43333C18.5783 6.94166 18.5366 8.90833 17.4033 10.9917Z" fill="white"/>
</svg>
