<svg width="20" height="20" viewBox="0 0 20 20" fill="none" xmlns="http://www.w3.org/2000/svg">
<path d="M3.74997 3.23333L7.44331 6.68333L6.30664 7.9L4.58331 6.29166V13.3333C4.58331 14.25 5.32997 15 6.24997 15H10.8333V16.6667H6.24997C4.40914 16.6667 2.91664 15.175 2.91664 13.3333V6.29166L1.19331 7.9L0.0566406 6.68333L3.74997 3.23333ZM13.75 5H9.16664V3.33333H13.75C15.5908 3.33333 17.0833 4.825 17.0833 6.66666V13.7083L18.8066 12.1L19.9433 13.3167L16.25 16.7667L12.5566 13.3167L13.6933 12.1L15.4166 13.7083V6.66666C15.4166 5.75 14.67 5 13.75 5Z" fill="#D9D9D9"/>
</svg>
