<svg width="20" height="20" viewBox="0 0 20 20" fill="none" xmlns="http://www.w3.org/2000/svg">
<path d="M1.45911 8.33333C1.45911 4.65 4.44577 1.66666 8.12994 1.66666H11.7683C15.5099 1.66666 18.5424 4.7 18.5424 8.44166C18.5424 10.9083 17.2033 13.175 15.0458 14.3667L8.33411 18.0833V15.0083H8.27827C4.53661 15.0917 1.45911 12.0833 1.45911 8.33333ZM8.12994 3.33333C5.36577 3.33333 3.12577 5.575 3.12577 8.33333C3.12577 11.1417 5.43411 13.4 8.24077 13.3417L8.53327 13.3333H10.0008V15.25L14.2399 12.9083C15.8658 12.0083 16.8758 10.3 16.8758 8.44166C16.8758 5.61666 14.5891 3.33333 11.7683 3.33333H8.12994Z" fill="#D9D9D9"/>
</svg>
