<svg width="25" height="25" viewBox="0 0 25 25" fill="none" xmlns="http://www.w3.org/2000/svg">
<g clip-path="url(#clip0_3_25)">
<mask id="mask0_3_25" style="mask-type:luminance" maskUnits="userSpaceOnUse" x="2" y="0" width="21" height="26">
<path d="M2.84625 0H22.5645V25.0014H2.84625V0Z" fill="white"/>
</mask>
<g mask="url(#mask0_3_25)">
<path d="M19.3119 13.2835C19.2841 10.1206 21.816 8.60097 21.93 8.52628C20.5055 6.3746 18.2908 6.08158 17.5006 6.04711C15.617 5.84889 13.8224 7.19333 12.8653 7.19333C11.9082 7.19333 10.4335 6.07583 8.86989 6.10743C6.81376 6.13903 4.91901 7.33984 3.85895 9.24159C1.72492 13.0623 3.31362 18.7302 5.39478 21.8357C6.41311 23.3525 7.62341 25.0617 9.21768 24.9985C10.7535 24.9353 11.3322 23.973 13.1852 23.973C15.0383 23.973 15.5613 24.9985 17.1806 24.9669C18.8306 24.9325 19.8767 23.4157 20.8867 21.8931C22.0525 20.1321 22.5338 18.4257 22.5616 18.3367C22.5255 18.3223 19.3453 17.064 19.3119 13.2835Z" fill="black"/>
</g>
<path d="M16.2653 3.9931C17.1111 2.93593 17.6815 1.46509 17.5257 0C16.3071 0.0517092 14.8324 0.838838 13.9588 1.896C13.177 2.82964 12.4897 4.32634 12.6761 5.76271C14.0311 5.87187 15.4195 5.04739 16.2653 3.9931Z" fill="black"/>
</g>
<defs>
<clipPath id="clip0_3_25">
<rect width="24.2131" height="25" fill="white" transform="translate(0.576271)"/>
</clipPath>
</defs>
</svg>
