<svg width="30" height="30" viewBox="0 0 30 30" fill="none" xmlns="http://www.w3.org/2000/svg">
<g clip-path="url(#clip0_4_92)">
<path d="M14.8125 7.6875C10.325 7.6875 6.6875 11.325 6.6875 15.8125C6.6875 20.3 10.325 23.9375 14.8125 23.9375C17.0562 23.9375 19.0862 23.03 20.5575 21.5575C22.03 20.0862 22.9375 18.0562 22.9375 15.8125C22.9375 11.325 19.3 7.6875 14.8125 7.6875ZM4.1875 15.8125C4.1875 9.945 8.945 5.1875 14.8125 5.1875C20.68 5.1875 25.4375 9.945 25.4375 15.8125C25.4375 18.295 24.585 20.5813 23.1575 22.39L29.1338 28.3662L27.3662 30.1338L21.39 24.1575C19.5813 25.585 17.295 26.4375 14.8125 26.4375C8.945 26.4375 4.1875 21.68 4.1875 15.8125Z" fill="white"/>
</g>
<defs>
<clipPath id="clip0_4_92">
<rect width="30" height="30" fill="white"/>
</clipPath>
</defs>
</svg>
