<svg width="25" height="25" viewBox="0 0 25 25" fill="none" xmlns="http://www.w3.org/2000/svg">
<g clip-path="url(#clip0_3_5)">
<mask id="mask0_3_5" style="mask-type:luminance" maskUnits="userSpaceOnUse" x="0" y="0" width="25" height="25">
<path d="M24.3737 10.2273H13.0926V15.0568H19.5861C18.9808 18.125 16.4494 19.8864 13.0926 19.8864C9.13048 19.8864 5.93876 16.5909 5.93876 12.5C5.93876 8.40909 9.13048 5.11363 13.0926 5.11363C14.7985 5.11363 16.3394 5.73863 17.55 6.76136L21.0719 3.12499C18.9258 1.19317 16.1743 -7.62939e-06 13.0926 -7.62939e-06C6.37899 -7.62939e-06 0.98608 5.56818 0.98608 12.5C0.98608 19.4318 6.37899 25 13.0926 25C19.1459 25 24.6489 20.4545 24.6489 12.5C24.6489 11.7614 24.5388 10.9659 24.3737 10.2273Z" fill="white"/>
</mask>
<g mask="url(#mask0_3_5)">
<path d="M-0.114513 19.8864V5.11363L9.24054 12.5L-0.114513 19.8864Z" fill="#FBBC05"/>
</g>
<mask id="mask1_3_5" style="mask-type:luminance" maskUnits="userSpaceOnUse" x="0" y="0" width="25" height="25">
<path d="M24.3737 10.2273H13.0926V15.0568H19.5861C18.9808 18.125 16.4494 19.8864 13.0926 19.8864C9.13048 19.8864 5.93876 16.5909 5.93876 12.5C5.93876 8.40909 9.13048 5.11363 13.0926 5.11363C14.7985 5.11363 16.3394 5.73863 17.55 6.76136L21.0719 3.12499C18.9258 1.19317 16.1743 -7.62939e-06 13.0926 -7.62939e-06C6.37899 -7.62939e-06 0.98608 5.56818 0.98608 12.5C0.98608 19.4318 6.37899 25 13.0926 25C19.1459 25 24.6489 20.4545 24.6489 12.5C24.6489 11.7614 24.5388 10.9659 24.3737 10.2273Z" fill="white"/>
</mask>
<g mask="url(#mask1_3_5)">
<path d="M-0.114513 5.11363L9.24054 12.5L13.0926 9.03409L26.2998 6.81818V-1.13637H-0.114513V5.11363Z" fill="#EA4335"/>
</g>
<mask id="mask2_3_5" style="mask-type:luminance" maskUnits="userSpaceOnUse" x="0" y="0" width="25" height="25">
<path d="M24.3737 10.2273H13.0926V15.0568H19.5861C18.9808 18.125 16.4494 19.8864 13.0926 19.8864C9.13048 19.8864 5.93876 16.5909 5.93876 12.5C5.93876 8.40909 9.13048 5.11363 13.0926 5.11363C14.7985 5.11363 16.3394 5.73863 17.55 6.76136L21.0719 3.12499C18.9258 1.19317 16.1743 -7.62939e-06 13.0926 -7.62939e-06C6.37899 -7.62939e-06 0.98608 5.56818 0.98608 12.5C0.98608 19.4318 6.37899 25 13.0926 25C19.1459 25 24.6489 20.4545 24.6489 12.5C24.6489 11.7614 24.5388 10.9659 24.3737 10.2273Z" fill="white"/>
</mask>
<g mask="url(#mask2_3_5)">
<path d="M-0.114513 19.8864L16.3944 6.81818L20.7418 7.38636L26.2998 -1.13637V26.1364H-0.114513V19.8864Z" fill="#34A853"/>
</g>
<mask id="mask3_3_5" style="mask-type:luminance" maskUnits="userSpaceOnUse" x="0" y="0" width="25" height="25">
<path d="M24.3737 10.2273H13.0926V15.0568H19.5861C18.9808 18.125 16.4494 19.8864 13.0926 19.8864C9.13048 19.8864 5.93876 16.5909 5.93876 12.5C5.93876 8.40909 9.13048 5.11363 13.0926 5.11363C14.7985 5.11363 16.3394 5.73863 17.55 6.76136L21.0719 3.12499C18.9258 1.19317 16.1743 -7.62939e-06 13.0926 -7.62939e-06C6.37899 -7.62939e-06 0.98608 5.56818 0.98608 12.5C0.98608 19.4318 6.37899 25 13.0926 25C19.1459 25 24.6489 20.4545 24.6489 12.5C24.6489 11.7614 24.5388 10.9659 24.3737 10.2273Z" fill="white"/>
</mask>
<g mask="url(#mask3_3_5)">
<path d="M26.2998 26.1364L9.24054 12.5L7.03935 10.7955L26.2998 5.11363V26.1364Z" fill="#4285F4"/>
</g>
</g>
<defs>
<clipPath id="clip0_3_5">
<rect width="24.2131" height="25" fill="white" transform="translate(0.60775)"/>
</clipPath>
</defs>
</svg>
