<svg width="30" height="30" viewBox="0 0 30 30" fill="none" xmlns="http://www.w3.org/2000/svg">
<mask id="mask0_4_75" style="mask-type:luminance" maskUnits="userSpaceOnUse" x="2" y="2" width="26" height="26">
<path d="M26.25 2.5H3.75C3.05964 2.5 2.5 3.05964 2.5 3.75V26.25C2.5 26.9404 3.05964 27.5 3.75 27.5H26.25C26.9404 27.5 27.5 26.9404 27.5 26.25V3.75C27.5 3.05964 26.9404 2.5 26.25 2.5Z" fill="white"/>
</mask>
<g mask="url(#mask0_4_75)">
<path d="M22.5 5.125H7.5C6.1875 5.125 5.125 6.1875 5.125 7.5V22.5C5.125 23.8125 6.1875 24.875 7.5 24.875H22.5C23.8125 24.875 24.875 23.8125 24.875 22.5V7.5C24.875 6.1875 23.8125 5.125 22.5 5.125ZM7.5 2.5H22.5C25.2625 2.5 27.5 4.7375 27.5 7.5V22.5C27.5 25.2625 25.2625 27.5 22.5 27.5H7.5C4.7375 27.5 2.5 25.2625 2.5 22.5V7.5C2.5 4.7375 4.7375 2.5 7.5 2.5Z" fill="white"/>
<path d="M8.34998 22.25L18.485 7.77499H21.65L11.5125 22.25H8.34998Z" fill="white"/>
</g>
</svg>
