<svg width="30" height="30" viewBox="0 0 30 30" fill="none" xmlns="http://www.w3.org/2000/svg">
<path d="M2.4975 6.875C2.4975 5.14875 3.89625 3.75 5.6225 3.75H24.3725C26.0987 3.75 27.4975 5.14875 27.4975 6.875V23.125C27.4975 24.8512 26.0987 26.25 24.3725 26.25H5.6225C3.89625 26.25 2.4975 24.8512 2.4975 23.125V6.875ZM5.6225 6.25C5.2775 6.25 4.9975 6.53 4.9975 6.875V10.33L14.9975 14.8775L24.9975 10.3325V6.875C24.9975 6.53 24.7175 6.25 24.3725 6.25H5.6225ZM24.9975 13.0788L14.9975 17.6237L4.9975 13.0763V23.125C4.9975 23.47 5.2775 23.75 5.6225 23.75H24.3725C24.7175 23.75 24.9975 23.47 24.9975 23.125V13.0788Z" fill="white"/>
</svg>
