<svg width="30" height="30" viewBox="0 0 30 30" fill="none" xmlns="http://www.w3.org/2000/svg">
<path d="M4.6875 15C4.6875 9.3 9.3 4.6875 15 4.6875C20.7 4.6875 25.3125 9.3 25.3125 15C25.3125 20.7 20.7 25.3125 15 25.3125C9.3 25.3125 4.6875 20.7 4.6875 15ZM15 2.1875C7.925 2.1875 2.1875 7.925 2.1875 15C2.1875 22.075 7.925 27.8125 15 27.8125C22.075 27.8125 27.8125 22.075 27.8125 15C27.8125 7.925 22.075 2.1875 15 2.1875ZM9.0625 16.5625C9.925 16.5625 10.625 15.8625 10.625 15C10.625 14.1375 9.925 13.4375 9.0625 13.4375C8.2 13.4375 7.5 14.1375 7.5 15C7.5 15.8625 8.2 16.5625 9.0625 16.5625ZM20.9375 16.5625C21.8 16.5625 22.5 15.8625 22.5 15C22.5 14.1375 21.8 13.4375 20.9375 13.4375C20.075 13.4375 19.375 14.1375 19.375 15C19.375 15.8625 20.075 16.5625 20.9375 16.5625ZM16.5625 15C16.5625 15.8625 15.8625 16.5625 15 16.5625C14.1375 16.5625 13.4375 15.8625 13.4375 15C13.4375 14.1375 14.1375 13.4375 15 13.4375C15.8625 13.4375 16.5625 14.1375 16.5625 15Z" fill="white"/>
</svg>
