<svg width="30" height="30" viewBox="0 0 30 30" fill="none" xmlns="http://www.w3.org/2000/svg">
<path d="M24.9913 11.3025C24.35 6.27125 20.0675 2.5 14.995 2.5C9.92252 2.5 5.63252 6.27625 4.99627 11.3137L3.58252 22.5H8.87502C9.45377 25.3525 11.9763 27.5 15 27.5C18.0238 27.5 20.5463 25.3525 21.125 22.5H26.42L24.9913 11.3025ZM15 25C13.3675 25 11.9788 23.9562 11.4638 22.5H18.5363C18.0213 23.9562 16.6325 25 15 25ZM6.41752 20L7.47627 11.6275C7.95502 7.84 11.1763 5 14.995 5C18.8138 5 22.0288 7.835 22.5113 11.6187L23.58 20H6.41752Z" fill="white"/>
</svg>
